<svg class="partnership-waves" viewBox="0 0 600 200" preserveAspectRatio="none" aria-hidden="true" xmlns="http://www.w3.org/2000/svg"><g class="wave-back" fill="#00acec" opacity="0.25"><rect x="1.18" y="193.16" width="1.93" height="6.84" rx="0.6"/><rect x="5.46" y="193.12" width="1.93" height="6.88" rx="0.6"/><rect x="9.75" y="193.04" width="1.93" height="6.96" rx="0.6"/><rect x="14.04" y="192.92" width="1.93" height="7.08" rx="0.6"/><rect x="18.32" y="192.71" width="1.93" height="7.29" rx="0.6"/><rect x="22.61" y="192.39" width="1.93" height="7.61" rx="0.6"/><rect x="26.89" y="191.92" width="1.93" height="8.08" rx="0.6"/><rect x="31.18" y="191.25" width="1.93" height="8.75" rx="0.6"/><rect x="35.46" y="190.34" width="1.93" height="9.66" rx="0.6"/><rect x="39.75" y="189.19" width="1.93" height="10.81" rx="0.6"/><rect x="44.04" y="187.80" width="1.93" height="12.20" rx="0.6"/><rect x="48.32" y="186.23" width="1.93" height="13.77" rx="0.6"/><rect x="52.61" y="184.55" width="1.93" height="15.45" rx="0.6"/><rect x="56.89" y="182.92" width="1.93" height="17.08" rx="0.6"/><rect x="61.18" y="181.46" width="1.93" height="18.54" rx="0.6"/><rect x="65.46" y="180.32" width="1.93" height="19.68" rx="0.6"/><rect x="69.75" y="179.62" width="1.93" height="20.38" rx="0.6"/><rect x="74.04" y="179.39" width="1.93" height="20.61" rx="0.6"/><rect x="78.32" y="179.63" width="1.93" height="20.37" rx="0.6"/><rect x="82.61" y="180.20" width="1.93" height="19.80" rx="0.6"/><rect x="86.89" y="180.95" width="1.93" height="19.05" rx="0.6"/><rect x="91.18" y="181.67" width="1.93" height="18.33" rx="0.6"/><rect x="95.46" y="182.19" width="1.93" height="17.81" rx="0.6"/><rect x="99.75" y="182.41" width="1.93" height="17.59" rx="0.6"/><rect x="104.04" y="182.32" width="1.93" height="17.68" rx="0.6"/><rect x="108.32" y="182.04" width="1.93" height="17.96" rx="0.6"/><rect x="112.61" y="181.76" width="1.93" height="18.24" rx="0.6"/><rect x="116.89" y="181.70" width="1.93" height="18.30" rx="0.6"/><rect x="121.18" y="182.03" width="1.93" height="17.97" rx="0.6"/><rect x="125.46" y="182.81" width="1.93" height="17.19" rx="0.6"/><rect x="129.75" y="183.99" width="1.93" height="16.01" rx="0.6"/><rect x="134.04" y="185.39" width="1.93" height="14.61" rx="0.6"/><rect x="138.32" y="186.76" width="1.93" height="13.24" rx="0.6"/><rect x="142.61" y="187.86" width="1.93" height="12.14" rx="0.6"/><rect x="146.89" y="188.48" width="1.93" height="11.52" rx="0.6"/><rect x="151.18" y="188.49" width="1.93" height="11.51" rx="0.6"/><rect x="155.46" y="187.87" width="1.93" height="12.13" rx="0.6"/><rect x="159.75" y="186.70" width="1.93" height="13.30" rx="0.6"/><rect x="164.04" y="185.18" width="1.93" height="14.82" rx="0.6"/><rect x="168.32" y="183.57" width="1.93" height="16.43" rx="0.6"/><rect x="172.61" y="182.17" width="1.93" height="17.83" rx="0.6"/><rect x="176.89" y="181.24" width="1.93" height="18.76" rx="0.6"/><rect x="181.18" y="180.95" width="1.93" height="19.05" rx="0.6"/><rect x="185.46" y="181.29" width="1.93" height="18.71" rx="0.6"/><rect x="189.75" y="182.12" width="1.93" height="17.88" rx="0.6"/><rect x="194.04" y="183.17" width="1.93" height="16.83" rx="0.6"/><rect x="198.32" y="184.13" width="1.93" height="15.87" rx="0.6"/><rect x="202.61" y="184.73" width="1.93" height="15.27" rx="0.6"/><rect x="206.89" y="184.76" width="1.93" height="15.24" rx="0.6"/><rect x="211.18" y="184.17" width="1.93" height="15.83" rx="0.6"/><rect x="215.46" y="183.03" width="1.93" height="16.97" rx="0.6"/><rect x="219.75" y="181.48" width="1.93" height="18.52" rx="0.6"/><rect x="224.04" y="179.76" width="1.93" height="20.24" rx="0.6"/><rect x="228.32" y="178.12" width="1.93" height="21.88" rx="0.6"/><rect x="232.61" y="176.78" width="1.93" height="23.22" rx="0.6"/><rect x="236.89" y="175.89" width="1.93" height="24.11" rx="0.6"/><rect x="241.18" y="175.54" width="1.93" height="24.46" rx="0.6"/><rect x="245.46" y="175.66" width="1.93" height="24.34" rx="0.6"/><rect x="249.75" y="176.13" width="1.93" height="23.87" rx="0.6"/><rect x="254.04" y="176.69" width="1.93" height="23.31" rx="0.6"/><rect x="258.32" y="177.09" width="1.93" height="22.91" rx="0.6"/><rect x="262.61" y="177.04" width="1.93" height="22.96" rx="0.6"/><rect x="266.89" y="176.35" width="1.93" height="23.65" rx="0.6"/><rect x="271.18" y="174.93" width="1.93" height="25.07" rx="0.6"/><rect x="275.46" y="172.82" width="1.93" height="27.18" rx="0.6"/><rect x="279.75" y="170.20" width="1.93" height="29.80" rx="0.6"/><rect x="284.04" y="167.38" width="1.93" height="32.62" rx="0.6"/><rect x="288.32" y="164.69" width="1.93" height="35.31" rx="0.6"/><rect x="292.61" y="162.48" width="1.93" height="37.52" rx="0.6"/><rect x="296.89" y="161.00" width="1.93" height="39.00" rx="0.6"/><rect x="301.18" y="160.36" width="1.93" height="39.64" rx="0.6"/><rect x="305.46" y="160.46" width="1.93" height="39.54" rx="0.6"/><rect x="309.75" y="161.06" width="1.93" height="38.94" rx="0.6"/><rect x="314.04" y="161.73" width="1.93" height="38.27" rx="0.6"/><rect x="318.32" y="161.98" width="1.93" height="38.02" rx="0.6"/><rect x="322.61" y="161.33" width="1.93" height="38.67" rx="0.6"/><rect x="326.89" y="159.36" width="1.93" height="40.64" rx="0.6"/><rect x="331.18" y="155.81" width="1.93" height="44.19" rx="0.6"/><rect x="335.46" y="150.61" width="1.93" height="49.39" rx="0.6"/><rect x="339.75" y="143.92" width="1.93" height="56.08" rx="0.6"/><rect x="344.04" y="136.08" width="1.93" height="63.92" rx="0.6"/><rect x="348.32" y="127.65" width="1.93" height="72.35" rx="0.6"/><rect x="352.61" y="119.26" width="1.93" height="80.74" rx="0.6"/><rect x="356.89" y="111.65" width="1.93" height="88.35" rx="0.6"/><rect x="361.18" y="105.48" width="1.93" height="94.52" rx="0.6"/><rect x="365.46" y="101.34" width="1.93" height="98.66" rx="0.6"/><rect x="369.75" y="99.63" width="1.93" height="100.37" rx="0.6"/><rect x="374.04" y="100.54" width="1.93" height="99.46" rx="0.6"/><rect x="378.32" y="104.00" width="1.93" height="96.00" rx="0.6"/><rect x="382.61" y="109.72" width="1.93" height="90.28" rx="0.6"/><rect x="386.89" y="117.23" width="1.93" height="82.77" rx="0.6"/><rect x="391.18" y="125.89" width="1.93" height="74.11" rx="0.6"/><rect x="395.46" y="135.00" width="1.93" height="65.00" rx="0.6"/><rect x="399.75" y="143.83" width="1.93" height="56.17" rx="0.6"/><rect x="404.04" y="151.70" width="1.93" height="48.30" rx="0.6"/><rect x="408.32" y="158.03" width="1.93" height="41.97" rx="0.6"/><rect x="412.61" y="162.40" width="1.93" height="37.60" rx="0.6"/><rect x="416.89" y="164.62" width="1.93" height="35.38" rx="0.6"/><rect x="421.18" y="164.78" width="1.93" height="35.22" rx="0.6"/><rect x="425.46" y="163.33" width="1.93" height="36.67" rx="0.6"/><rect x="429.75" y="160.97" width="1.93" height="39.03" rx="0.6"/><rect x="434.04" y="158.58" width="1.93" height="41.42" rx="0.6"/><rect x="438.32" y="157.00" width="1.93" height="43.00" rx="0.6"/><rect x="442.61" y="156.84" width="1.93" height="43.16" rx="0.6"/><rect x="446.89" y="158.29" width="1.93" height="41.71" rx="0.6"/><rect x="451.18" y="161.08" width="1.93" height="38.92" rx="0.6"/><rect x="455.46" y="164.54" width="1.93" height="35.46" rx="0.6"/><rect x="459.75" y="167.78" width="1.93" height="32.22" rx="0.6"/><rect x="464.04" y="169.90" width="1.93" height="30.10" rx="0.6"/><rect x="468.32" y="170.11" width="1.93" height="29.89" rx="0.6"/><rect x="472.61" y="167.85" width="1.93" height="32.15" rx="0.6"/><rect x="476.89" y="162.80" width="1.93" height="37.20" rx="0.6"/><rect x="481.18" y="154.88" width="1.93" height="45.12" rx="0.6"/><rect x="485.46" y="144.19" width="1.93" height="55.81" rx="0.6"/><rect x="489.75" y="131.00" width="1.93" height="69.00" rx="0.6"/><rect x="494.04" y="115.80" width="1.93" height="84.20" rx="0.6"/><rect x="498.32" y="99.26" width="1.93" height="100.74" rx="0.6"/><rect x="502.61" y="82.24" width="1.93" height="117.76" rx="0.6"/><rect x="506.89" y="65.78" width="1.93" height="134.22" rx="0.6"/><rect x="511.18" y="51.00" width="1.93" height="149.00" rx="0.6"/><rect x="515.46" y="38.99" width="1.93" height="161.01" rx="0.6"/><rect x="519.75" y="30.67" width="1.93" height="169.33" rx="0.6"/><rect x="524.04" y="30.00" width="1.93" height="170.00" rx="0.6"/><rect x="528.32" y="30.00" width="1.93" height="170.00" rx="0.6"/><rect x="532.61" y="31.79" width="1.93" height="168.21" rx="0.6"/><rect x="536.89" y="39.53" width="1.93" height="160.47" rx="0.6"/><rect x="541.18" y="48.82" width="1.93" height="151.18" rx="0.6"/><rect x="545.46" y="57.88" width="1.93" height="142.12" rx="0.6"/><rect x="549.75" y="65.26" width="1.93" height="134.74" rx="0.6"/><rect x="554.04" y="70.64" width="1.93" height="129.36" rx="0.6"/><rect x="558.32" y="75.12" width="1.93" height="124.88" rx="0.6"/><rect x="562.61" y="80.96" width="1.93" height="119.04" rx="0.6"/><rect x="566.89" y="90.40" width="1.93" height="109.60" rx="0.6"/><rect x="571.18" y="104.39" width="1.93" height="95.61" rx="0.6"/><rect x="575.46" y="121.95" width="1.93" height="78.05" rx="0.6"/><rect x="579.75" y="140.62" width="1.93" height="59.38" rx="0.6"/><rect x="584.04" y="157.64" width="1.93" height="42.36" rx="0.6"/><rect x="588.32" y="171.14" width="1.93" height="28.86" rx="0.6"/><rect x="592.61" y="180.57" width="1.93" height="19.43" rx="0.6"/><rect x="596.89" y="186.45" width="1.93" height="13.55" rx="0.6"/></g><g class="wave-mid" fill="#00acec" opacity="0.55"><rect x="1.18" y="194.77" width="1.93" height="5.23" rx="0.6"/><rect x="5.46" y="194.74" width="1.93" height="5.26" rx="0.6"/><rect x="9.75" y="194.68" width="1.93" height="5.32" rx="0.6"/><rect x="14.04" y="194.58" width="1.93" height="5.42" rx="0.6"/><rect x="18.32" y="194.43" width="1.93" height="5.57" rx="0.6"/><rect x="22.61" y="194.18" width="1.93" height="5.82" rx="0.6"/><rect x="26.89" y="193.82" width="1.93" height="6.18" rx="0.6"/><rect x="31.18" y="193.31" width="1.93" height="6.69" rx="0.6"/><rect x="35.46" y="192.61" width="1.93" height="7.39" rx="0.6"/><rect x="39.75" y="191.73" width="1.93" height="8.27" rx="0.6"/><rect x="44.04" y="190.67" width="1.93" height="9.33" rx="0.6"/><rect x="48.32" y="189.47" width="1.93" height="10.53" rx="0.6"/><rect x="52.61" y="188.19" width="1.93" height="11.81" rx="0.6"/><rect x="56.89" y="186.94" width="1.93" height="13.06" rx="0.6"/><rect x="61.18" y="185.82" width="1.93" height="14.18" rx="0.6"/><rect x="65.46" y="184.95" width="1.93" height="15.05" rx="0.6"/><rect x="69.75" y="184.41" width="1.93" height="15.59" rx="0.6"/><rect x="74.04" y="184.24" width="1.93" height="15.76" rx="0.6"/><rect x="78.32" y="184.42" width="1.93" height="15.58" rx="0.6"/><rect x="82.61" y="184.86" width="1.93" height="15.14" rx="0.6"/><rect x="86.89" y="185.43" width="1.93" height="14.57" rx="0.6"/><rect x="91.18" y="185.99" width="1.93" height="14.01" rx="0.6"/><rect x="95.46" y="186.38" width="1.93" height="13.62" rx="0.6"/><rect x="99.75" y="186.55" width="1.93" height="13.45" rx="0.6"/><rect x="104.04" y="186.48" width="1.93" height="13.52" rx="0.6"/><rect x="108.32" y="186.27" width="1.93" height="13.73" rx="0.6"/><rect x="112.61" y="186.05" width="1.93" height="13.95" rx="0.6"/><rect x="116.89" y="186.00" width="1.93" height="14.00" rx="0.6"/><rect x="121.18" y="186.26" width="1.93" height="13.74" rx="0.6"/><rect x="125.46" y="186.86" width="1.93" height="13.14" rx="0.6"/><rect x="129.75" y="187.76" width="1.93" height="12.24" rx="0.6"/><rect x="134.04" y="188.83" width="1.93" height="11.17" rx="0.6"/><rect x="138.32" y="189.88" width="1.93" height="10.12" rx="0.6"/><rect x="142.61" y="190.72" width="1.93" height="9.28" rx="0.6"/><rect x="146.89" y="191.19" width="1.93" height="8.81" rx="0.6"/><rect x="151.18" y="191.20" width="1.93" height="8.80" rx="0.6"/><rect x="155.46" y="190.72" width="1.93" height="9.28" rx="0.6"/><rect x="159.75" y="189.83" width="1.93" height="10.17" rx="0.6"/><rect x="164.04" y="188.66" width="1.93" height="11.34" rx="0.6"/><rect x="168.32" y="187.43" width="1.93" height="12.57" rx="0.6"/><rect x="172.61" y="186.36" width="1.93" height="13.64" rx="0.6"/><rect x="176.89" y="185.66" width="1.93" height="14.34" rx="0.6"/><rect x="181.18" y="185.43" width="1.93" height="14.57" rx="0.6"/><rect x="185.46" y="185.69" width="1.93" height="14.31" rx="0.6"/><rect x="189.75" y="186.33" width="1.93" height="13.67" rx="0.6"/><rect x="194.04" y="187.13" width="1.93" height="12.87" rx="0.6"/><rect x="198.32" y="187.87" width="1.93" height="12.13" rx="0.6"/><rect x="202.61" y="188.32" width="1.93" height="11.68" rx="0.6"/><rect x="206.89" y="188.35" width="1.93" height="11.65" rx="0.6"/><rect x="211.18" y="187.90" width="1.93" height="12.10" rx="0.6"/><rect x="215.46" y="187.02" width="1.93" height="12.98" rx="0.6"/><rect x="219.75" y="185.84" width="1.93" height="14.16" rx="0.6"/><rect x="224.04" y="184.52" width="1.93" height="15.48" rx="0.6"/><rect x="228.32" y="183.27" width="1.93" height="16.73" rx="0.6"/><rect x="232.61" y="182.24" width="1.93" height="17.76" rx="0.6"/><rect x="236.89" y="181.57" width="1.93" height="18.43" rx="0.6"/><rect x="241.18" y="181.29" width="1.93" height="18.71" rx="0.6"/><rect x="245.46" y="181.39" width="1.93" height="18.61" rx="0.6"/><rect x="249.75" y="181.74" width="1.93" height="18.26" rx="0.6"/><rect x="254.04" y="182.18" width="1.93" height="17.82" rx="0.6"/><rect x="258.32" y="182.48" width="1.93" height="17.52" rx="0.6"/><rect x="262.61" y="182.44" width="1.93" height="17.56" rx="0.6"/><rect x="266.89" y="181.91" width="1.93" height="18.09" rx="0.6"/><rect x="271.18" y="180.83" width="1.93" height="19.17" rx="0.6"/><rect x="275.46" y="179.21" width="1.93" height="20.79" rx="0.6"/><rect x="279.75" y="177.21" width="1.93" height="22.79" rx="0.6"/><rect x="284.04" y="175.05" width="1.93" height="24.95" rx="0.6"/><rect x="288.32" y="173.00" width="1.93" height="27.00" rx="0.6"/><rect x="292.61" y="171.31" width="1.93" height="28.69" rx="0.6"/><rect x="296.89" y="170.18" width="1.93" height="29.82" rx="0.6"/><rect x="301.18" y="169.68" width="1.93" height="30.32" rx="0.6"/><rect x="305.46" y="169.77" width="1.93" height="30.23" rx="0.6"/><rect x="309.75" y="170.22" width="1.93" height="29.78" rx="0.6"/><rect x="314.04" y="170.73" width="1.93" height="29.27" rx="0.6"/><rect x="318.32" y="170.93" width="1.93" height="29.07" rx="0.6"/><rect x="322.61" y="170.43" width="1.93" height="29.57" rx="0.6"/><rect x="326.89" y="168.92" width="1.93" height="31.08" rx="0.6"/><rect x="331.18" y="166.21" width="1.93" height="33.79" rx="0.6"/><rect x="335.46" y="162.23" width="1.93" height="37.77" rx="0.6"/><rect x="339.75" y="157.11" width="1.93" height="42.89" rx="0.6"/><rect x="344.04" y="151.12" width="1.93" height="48.88" rx="0.6"/><rect x="348.32" y="144.67" width="1.93" height="55.33" rx="0.6"/><rect x="352.61" y="138.26" width="1.93" height="61.74" rx="0.6"/><rect x="356.89" y="132.44" width="1.93" height="67.56" rx="0.6"/><rect x="361.18" y="127.72" width="1.93" height="72.28" rx="0.6"/><rect x="365.46" y="124.55" width="1.93" height="75.45" rx="0.6"/><rect x="369.75" y="123.25" width="1.93" height="76.75" rx="0.6"/><rect x="374.04" y="123.94" width="1.93" height="76.06" rx="0.6"/><rect x="378.32" y="126.59" width="1.93" height="73.41" rx="0.6"/><rect x="382.61" y="130.96" width="1.93" height="69.04" rx="0.6"/><rect x="386.89" y="136.70" width="1.93" height="63.30" rx="0.6"/><rect x="391.18" y="143.33" width="1.93" height="56.67" rx="0.6"/><rect x="395.46" y="150.29" width="1.93" height="49.71" rx="0.6"/><rect x="399.75" y="157.04" width="1.93" height="42.96" rx="0.6"/><rect x="404.04" y="163.07" width="1.93" height="36.93" rx="0.6"/><rect x="408.32" y="167.91" width="1.93" height="32.09" rx="0.6"/><rect x="412.61" y="171.25" width="1.93" height="28.75" rx="0.6"/><rect x="416.89" y="172.94" width="1.93" height="27.06" rx="0.6"/><rect x="421.18" y="173.07" width="1.93" height="26.93" rx="0.6"/><rect x="425.46" y="171.96" width="1.93" height="28.04" rx="0.6"/><rect x="429.75" y="170.16" width="1.93" height="29.84" rx="0.6"/><rect x="434.04" y="168.33" width="1.93" height="31.67" rx="0.6"/><rect x="438.32" y="167.12" width="1.93" height="32.88" rx="0.6"/><rect x="442.61" y="167.00" width="1.93" height="33.00" rx="0.6"/><rect x="446.89" y="168.10" width="1.93" height="31.90" rx="0.6"/><rect x="451.18" y="170.23" width="1.93" height="29.77" rx="0.6"/><rect x="455.46" y="172.88" width="1.93" height="27.12" rx="0.6"/><rect x="459.75" y="175.36" width="1.93" height="24.64" rx="0.6"/><rect x="464.04" y="176.98" width="1.93" height="23.02" rx="0.6"/><rect x="468.32" y="177.14" width="1.93" height="22.86" rx="0.6"/><rect x="472.61" y="175.41" width="1.93" height="24.59" rx="0.6"/><rect x="476.89" y="171.55" width="1.93" height="28.45" rx="0.6"/><rect x="481.18" y="165.50" width="1.93" height="34.50" rx="0.6"/><rect x="485.46" y="157.32" width="1.93" height="42.68" rx="0.6"/><rect x="489.75" y="147.24" width="1.93" height="52.76" rx="0.6"/><rect x="494.04" y="135.61" width="1.93" height="64.39" rx="0.6"/><rect x="498.32" y="122.96" width="1.93" height="77.04" rx="0.6"/><rect x="502.61" y="109.95" width="1.93" height="90.05" rx="0.6"/><rect x="506.89" y="97.36" width="1.93" height="102.64" rx="0.6"/><rect x="511.18" y="86.06" width="1.93" height="113.94" rx="0.6"/><rect x="515.46" y="76.87" width="1.93" height="123.13" rx="0.6"/><rect x="519.75" y="70.51" width="1.93" height="129.49" rx="0.6"/><rect x="524.04" y="70.00" width="1.93" height="130.00" rx="0.6"/><rect x="528.32" y="70.00" width="1.93" height="130.00" rx="0.6"/><rect x="532.61" y="71.37" width="1.93" height="128.63" rx="0.6"/><rect x="536.89" y="77.29" width="1.93" height="122.71" rx="0.6"/><rect x="541.18" y="84.39" width="1.93" height="115.61" rx="0.6"/><rect x="545.46" y="91.32" width="1.93" height="108.68" rx="0.6"/><rect x="549.75" y="96.97" width="1.93" height="103.03" rx="0.6"/><rect x="554.04" y="101.08" width="1.93" height="98.92" rx="0.6"/><rect x="558.32" y="104.51" width="1.93" height="95.49" rx="0.6"/><rect x="562.61" y="108.97" width="1.93" height="91.03" rx="0.6"/><rect x="566.89" y="116.19" width="1.93" height="83.81" rx="0.6"/><rect x="571.18" y="126.89" width="1.93" height="73.11" rx="0.6"/><rect x="575.46" y="140.32" width="1.93" height="59.68" rx="0.6"/><rect x="579.75" y="154.59" width="1.93" height="45.41" rx="0.6"/><rect x="584.04" y="167.61" width="1.93" height="32.39" rx="0.6"/><rect x="588.32" y="177.93" width="1.93" height="22.07" rx="0.6"/><rect x="592.61" y="185.14" width="1.93" height="14.86" rx="0.6"/><rect x="596.89" y="189.64" width="1.93" height="10.36" rx="0.6"/></g><g class="wave-front" fill="#00acec"><rect x="1.18" y="196.38" width="1.93" height="3.62" rx="0.6"/><rect x="5.46" y="196.36" width="1.93" height="3.64" rx="0.6"/><rect x="9.75" y="196.32" width="1.93" height="3.68" rx="0.6"/><rect x="14.04" y="196.25" width="1.93" height="3.75" rx="0.6"/><rect x="18.32" y="196.14" width="1.93" height="3.86" rx="0.6"/><rect x="22.61" y="195.97" width="1.93" height="4.03" rx="0.6"/><rect x="26.89" y="195.72" width="1.93" height="4.28" rx="0.6"/><rect x="31.18" y="195.37" width="1.93" height="4.63" rx="0.6"/><rect x="35.46" y="194.89" width="1.93" height="5.11" rx="0.6"/><rect x="39.75" y="194.28" width="1.93" height="5.72" rx="0.6"/><rect x="44.04" y="193.54" width="1.93" height="6.46" rx="0.6"/><rect x="48.32" y="192.71" width="1.93" height="7.29" rx="0.6"/><rect x="52.61" y="191.82" width="1.93" height="8.18" rx="0.6"/><rect x="56.89" y="190.96" width="1.93" height="9.04" rx="0.6"/><rect x="61.18" y="190.18" width="1.93" height="9.82" rx="0.6"/><rect x="65.46" y="189.58" width="1.93" height="10.42" rx="0.6"/><rect x="69.75" y="189.21" width="1.93" height="10.79" rx="0.6"/><rect x="74.04" y="189.09" width="1.93" height="10.91" rx="0.6"/><rect x="78.32" y="189.21" width="1.93" height="10.79" rx="0.6"/><rect x="82.61" y="189.52" width="1.93" height="10.48" rx="0.6"/><rect x="86.89" y="189.91" width="1.93" height="10.09" rx="0.6"/><rect x="91.18" y="190.30" width="1.93" height="9.70" rx="0.6"/><rect x="95.46" y="190.57" width="1.93" height="9.43" rx="0.6"/><rect x="99.75" y="190.69" width="1.93" height="9.31" rx="0.6"/><rect x="104.04" y="190.64" width="1.93" height="9.36" rx="0.6"/><rect x="108.32" y="190.49" width="1.93" height="9.51" rx="0.6"/><rect x="112.61" y="190.34" width="1.93" height="9.66" rx="0.6"/><rect x="116.89" y="190.31" width="1.93" height="9.69" rx="0.6"/><rect x="121.18" y="190.49" width="1.93" height="9.51" rx="0.6"/><rect x="125.46" y="190.90" width="1.93" height="9.10" rx="0.6"/><rect x="129.75" y="191.52" width="1.93" height="8.48" rx="0.6"/><rect x="134.04" y="192.26" width="1.93" height="7.74" rx="0.6"/><rect x="138.32" y="192.99" width="1.93" height="7.01" rx="0.6"/><rect x="142.61" y="193.57" width="1.93" height="6.43" rx="0.6"/><rect x="146.89" y="193.90" width="1.93" height="6.10" rx="0.6"/><rect x="151.18" y="193.91" width="1.93" height="6.09" rx="0.6"/><rect x="155.46" y="193.58" width="1.93" height="6.42" rx="0.6"/><rect x="159.75" y="192.96" width="1.93" height="7.04" rx="0.6"/><rect x="164.04" y="192.15" width="1.93" height="7.85" rx="0.6"/><rect x="168.32" y="191.30" width="1.93" height="8.70" rx="0.6"/><rect x="172.61" y="190.56" width="1.93" height="9.44" rx="0.6"/><rect x="176.89" y="190.07" width="1.93" height="9.93" rx="0.6"/><rect x="181.18" y="189.91" width="1.93" height="10.09" rx="0.6"/><rect x="185.46" y="190.10" width="1.93" height="9.90" rx="0.6"/><rect x="189.75" y="190.53" width="1.93" height="9.47" rx="0.6"/><rect x="194.04" y="191.09" width="1.93" height="8.91" rx="0.6"/><rect x="198.32" y="191.60" width="1.93" height="8.40" rx="0.6"/><rect x="202.61" y="191.91" width="1.93" height="8.09" rx="0.6"/><rect x="206.89" y="191.93" width="1.93" height="8.07" rx="0.6"/><rect x="211.18" y="191.62" width="1.93" height="8.38" rx="0.6"/><rect x="215.46" y="191.01" width="1.93" height="8.99" rx="0.6"/><rect x="219.75" y="190.19" width="1.93" height="9.81" rx="0.6"/><rect x="224.04" y="189.29" width="1.93" height="10.71" rx="0.6"/><rect x="228.32" y="188.42" width="1.93" height="11.58" rx="0.6"/><rect x="232.61" y="187.71" width="1.93" height="12.29" rx="0.6"/><rect x="236.89" y="187.24" width="1.93" height="12.76" rx="0.6"/><rect x="241.18" y="187.05" width="1.93" height="12.95" rx="0.6"/><rect x="245.46" y="187.12" width="1.93" height="12.88" rx="0.6"/><rect x="249.75" y="187.36" width="1.93" height="12.64" rx="0.6"/><rect x="254.04" y="187.66" width="1.93" height="12.34" rx="0.6"/><rect x="258.32" y="187.87" width="1.93" height="12.13" rx="0.6"/><rect x="262.61" y="187.84" width="1.93" height="12.16" rx="0.6"/><rect x="266.89" y="187.48" width="1.93" height="12.52" rx="0.6"/><rect x="271.18" y="186.73" width="1.93" height="13.27" rx="0.6"/><rect x="275.46" y="185.61" width="1.93" height="14.39" rx="0.6"/><rect x="279.75" y="184.22" width="1.93" height="15.78" rx="0.6"/><rect x="284.04" y="182.73" width="1.93" height="17.27" rx="0.6"/><rect x="288.32" y="181.31" width="1.93" height="18.69" rx="0.6"/><rect x="292.61" y="180.14" width="1.93" height="19.86" rx="0.6"/><rect x="296.89" y="179.35" width="1.93" height="20.65" rx="0.6"/><rect x="301.18" y="179.01" width="1.93" height="20.99" rx="0.6"/><rect x="305.46" y="179.07" width="1.93" height="20.93" rx="0.6"/><rect x="309.75" y="179.38" width="1.93" height="20.62" rx="0.6"/><rect x="314.04" y="179.74" width="1.93" height="20.26" rx="0.6"/><rect x="318.32" y="179.87" width="1.93" height="20.13" rx="0.6"/><rect x="322.61" y="179.53" width="1.93" height="20.47" rx="0.6"/><rect x="326.89" y="178.49" width="1.93" height="21.51" rx="0.6"/><rect x="331.18" y="176.61" width="1.93" height="23.39" rx="0.6"/><rect x="335.46" y="173.85" width="1.93" height="26.15" rx="0.6"/><rect x="339.75" y="170.31" width="1.93" height="29.69" rx="0.6"/><rect x="344.04" y="166.16" width="1.93" height="33.84" rx="0.6"/><rect x="348.32" y="161.70" width="1.93" height="38.30" rx="0.6"/><rect x="352.61" y="157.26" width="1.93" height="42.74" rx="0.6"/><rect x="356.89" y="153.23" width="1.93" height="46.77" rx="0.6"/><rect x="361.18" y="149.96" width="1.93" height="50.04" rx="0.6"/><rect x="365.46" y="147.77" width="1.93" height="52.23" rx="0.6"/><rect x="369.75" y="146.86" width="1.93" height="53.14" rx="0.6"/><rect x="374.04" y="147.34" width="1.93" height="52.66" rx="0.6"/><rect x="378.32" y="149.17" width="1.93" height="50.83" rx="0.6"/><rect x="382.61" y="152.21" width="1.93" height="47.79" rx="0.6"/><rect x="386.89" y="156.18" width="1.93" height="43.82" rx="0.6"/><rect x="391.18" y="160.76" width="1.93" height="39.24" rx="0.6"/><rect x="395.46" y="165.59" width="1.93" height="34.41" rx="0.6"/><rect x="399.75" y="170.26" width="1.93" height="29.74" rx="0.6"/><rect x="404.04" y="174.43" width="1.93" height="25.57" rx="0.6"/><rect x="408.32" y="177.78" width="1.93" height="22.22" rx="0.6"/><rect x="412.61" y="180.09" width="1.93" height="19.91" rx="0.6"/><rect x="416.89" y="181.27" width="1.93" height="18.73" rx="0.6"/><rect x="421.18" y="181.36" width="1.93" height="18.64" rx="0.6"/><rect x="425.46" y="180.59" width="1.93" height="19.41" rx="0.6"/><rect x="429.75" y="179.34" width="1.93" height="20.66" rx="0.6"/><rect x="434.04" y="178.07" width="1.93" height="21.93" rx="0.6"/><rect x="438.32" y="177.24" width="1.93" height="22.76" rx="0.6"/><rect x="442.61" y="177.15" width="1.93" height="22.85" rx="0.6"/><rect x="446.89" y="177.92" width="1.93" height="22.08" rx="0.6"/><rect x="451.18" y="179.39" width="1.93" height="20.61" rx="0.6"/><rect x="455.46" y="181.22" width="1.93" height="18.78" rx="0.6"/><rect x="459.75" y="182.94" width="1.93" height="17.06" rx="0.6"/><rect x="464.04" y="184.06" width="1.93" height="15.94" rx="0.6"/><rect x="468.32" y="184.17" width="1.93" height="15.83" rx="0.6"/><rect x="472.61" y="182.98" width="1.93" height="17.02" rx="0.6"/><rect x="476.89" y="180.31" width="1.93" height="19.69" rx="0.6"/><rect x="481.18" y="176.11" width="1.93" height="23.89" rx="0.6"/><rect x="485.46" y="170.45" width="1.93" height="29.55" rx="0.6"/><rect x="489.75" y="163.47" width="1.93" height="36.53" rx="0.6"/><rect x="494.04" y="155.42" width="1.93" height="44.58" rx="0.6"/><rect x="498.32" y="146.66" width="1.93" height="53.34" rx="0.6"/><rect x="502.61" y="137.66" width="1.93" height="62.34" rx="0.6"/><rect x="506.89" y="128.94" width="1.93" height="71.06" rx="0.6"/><rect x="511.18" y="121.12" width="1.93" height="78.88" rx="0.6"/><rect x="515.46" y="114.76" width="1.93" height="85.24" rx="0.6"/><rect x="519.75" y="110.35" width="1.93" height="89.65" rx="0.6"/><rect x="524.04" y="110.00" width="1.93" height="90.00" rx="0.6"/><rect x="528.32" y="110.00" width="1.93" height="90.00" rx="0.6"/><rect x="532.61" y="110.95" width="1.93" height="89.05" rx="0.6"/><rect x="536.89" y="115.05" width="1.93" height="84.95" rx="0.6"/><rect x="541.18" y="119.97" width="1.93" height="80.03" rx="0.6"/><rect x="545.46" y="124.76" width="1.93" height="75.24" rx="0.6"/><rect x="549.75" y="128.67" width="1.93" height="71.33" rx="0.6"/><rect x="554.04" y="131.51" width="1.93" height="68.49" rx="0.6"/><rect x="558.32" y="133.89" width="1.93" height="66.11" rx="0.6"/><rect x="562.61" y="136.98" width="1.93" height="63.02" rx="0.6"/><rect x="566.89" y="141.97" width="1.93" height="58.03" rx="0.6"/><rect x="571.18" y="149.38" width="1.93" height="50.62" rx="0.6"/><rect x="575.46" y="158.68" width="1.93" height="41.32" rx="0.6"/><rect x="579.75" y="168.56" width="1.93" height="31.44" rx="0.6"/><rect x="584.04" y="177.57" width="1.93" height="22.43" rx="0.6"/><rect x="588.32" y="184.72" width="1.93" height="15.28" rx="0.6"/><rect x="592.61" y="189.71" width="1.93" height="10.29" rx="0.6"/><rect x="596.89" y="192.83" width="1.93" height="7.17" rx="0.6"/></g></svg>
